999
dxfrw 0.6.3
  0
SECTION
  2
HEADER
  9
$ACADVER
  1
AC1021
  9
$DWGCODEPAGE
  3
ANSI_1252
  9
$INSBASE
 10
0
 20
0
 30
0
  9
$EXTMIN
 10
-8.225193020000001
 20
3.20081711
 30
0
  9
$EXTMAX
 10
8.224803919999999
 20
16.70081711
 30
0
  9
$LIMMIN
 10
0
 20
0
  9
$LIMMAX
 10
420
 20
297
  9
$ORTHOMODE
 70
    0
  9
$REGENMODE
 70
    1
  9
$FILLMODE
 70
    1
  9
$QTEXTMODE
 70
    0
  9
$MIRRTEXT
 70
    0
  9
$LTSCALE
 40
1
  9
$ATTMODE
 70
    0
  9
$TEXTSIZE
 40
2.5
  9
$TRACEWID
 40
15.68
  9
$TEXTSTYLE
  7
STANDARD
  9
$CLAYER
  8
3
  9
$CELTYPE
  6
BYLAYER
  9
$CECOLOR
 62
  256
  9
$CELTSCALE
 40
1
  9
$DISPSILH
 70
    0
  9
$DIMSCALE
 40
2.5
  9
$DIMASZ
 40
2.5
  9
$DIMEXO
 40
0.625
  9
$DIMDLI
 40
3.75
  9
$DIMRND
 40
0
  9
$DIMDLE
 40
0
  9
$DIMEXE
 40
1.25
  9
$DIMTP
 40
0
  9
$DIMTM
 40
0
  9
$DIMTXT
 40
2.5
  9
$DIMCEN
 40
2.5
  9
$DIMTSZ
 40
0
  9
$DIMTOL
 70
    0
  9
$DIMLIM
 70
    0
  9
$DIMTIH
 70
    0
  9
$DIMTOH
 70
    0
  9
$DIMSE1
 70
    0
  9
$DIMSE2
 70
    0
  9
$DIMTAD
 70
    1
  9
$DIMZIN
 70
    8
  9
$DIMBLK
  1

  9
$DIMASO
 70
    1
  9
$DIMSHO
 70
    1
  9
$DIMPOST
  1

  9
$DIMAPOST
  1

  9
$DIMALT
 70
    0
  9
$DIMALTD
 70
    3
  9
$DIMALTF
 40
0.03937
  9
$DIMLFAC
 40
1
  9
$DIMTOFL
 70
    1
  9
$DIMTVP
 40
0
  9
$DIMTIX
 70
    0
  9
$DIMSOXD
 70
    0
  9
$DIMSAH
 70
    0
  9
$DIMBLK1
  1

  9
$DIMBLK2
  1

  9
$DIMSTYLE
  2
Standard
  9
$DIMCLRD
 70
    0
  9
$DIMCLRE
 70
    0
  9
$DIMCLRT
 70
    0
  9
$DIMTFAC
 40
1
  9
$DIMGAP
 40
0.625
  9
$DIMJUST
 70
    0
  9
$DIMSD1
 70
    0
  9
$DIMSD2
 70
    0
  9
$DIMTOLJ
 70
    0
  9
$DIMTZIN
 70
    8
  9
$DIMALTZ
 70
    0
  9
$DIMALTTZ
 70
    0
  9
$DIMUPT
 70
    0
  9
$DIMDEC
 70
    2
  9
$DIMTDEC
 70
    2
  9
$DIMALTU
 70
    2
  9
$DIMALTTD
 70
    3
  9
$DIMTXSTY
  7
STANDARD
  9
$DIMAUNIT
 70
    0
  9
$DIMADEC
 70
    0
  9
$DIMALTRND
 40
0
  9
$DIMAZIN
 70
    0
  9
$DIMDSEP
 70
   44
  9
$DIMATFIT
 70
    3
  9
$DIMFRAC
 70
    0
  9
$DIMLDRBLK
  1
STANDARD
  9
$DIMLUNIT
 70
    2
  9
$DIMLWD
 70
   -2
  9
$DIMLWE
 70
   -2
  9
$DIMTMOVE
 70
    0
  9
$DIMFXL
 40
1
  9
$DIMFXLON
 70
    0
  9
$DIMJOGANG
 40
0.7854
  9
$DIMTFILL
 70
    0
  9
$DIMTFILLCLR
 70
    0
  9
$DIMARCSYM
 70
    0
  9
$DIMLTYPE
  6

  9
$DIMLTEX1
  6

  9
$DIMLTEX2
  6

  9
$LUNITS
 70
    2
  9
$LUPREC
 70
    4
  9
$SKETCHINC
 40
1
  9
$FILLETRAD
 40
0
  9
$AUNITS
 70
    0
  9
$AUPREC
 70
    2
  9
$MENU
  1
.
  9
$ELEVATION
 40
0
  9
$PELEVATION
 40
0
  9
$THICKNESS
 40
0
  9
$LIMCHECK
 70
    0
  9
$CHAMFERA
 40
0
  9
$CHAMFERB
 40
0
  9
$CHAMFERC
 40
0
  9
$CHAMFERD
 40
0
  9
$SKPOLY
 70
    0
  9
$USRTIMER
 70
    1
  9
$ANGBASE
 50
0
  9
$ANGDIR
 70
    0
  9
$PDMODE
 70
   34
  9
$PDSIZE
 40
0
  9
$PLINEWID
 40
0
  9
$SPLFRAME
 70
    0
  9
$SPLINETYPE
 70
    2
  9
$SPLINESEGS
 70
    8
  9
$HANDSEED
  5
20000
  9
$SURFTAB1
 70
    6
  9
$SURFTAB2
 70
    6
  9
$SURFTYPE
 70
    6
  9
$SURFU
 70
    6
  9
$SURFV
 70
    6
  9
$UCSBASE
  2

  9
$UCSNAME
  2

  9
$UCSORG
 10
0
 20
0
 30
0
  9
$UCSXDIR
 10
1
 20
0
 30
0
  9
$UCSYDIR
 10
0
 20
1
 30
0
  9
$UCSORTHOREF
  2

  9
$UCSORTHOVIEW
 70
    0
  9
$UCSORGTOP
 10
0
 20
0
 30
0
  9
$UCSORGBOTTOM
 10
0
 20
0
 30
0
  9
$UCSORGLEFT
 10
0
 20
0
 30
0
  9
$UCSORGRIGHT
 10
0
 20
0
 30
0
  9
$UCSORGFRONT
 10
0
 20
0
 30
0
  9
$UCSORGBACK
 10
0
 20
0
 30
0
  9
$PUCSBASE
  2

  9
$PUCSNAME
  2

  9
$PUCSORG
 10
0
 20
0
 30
0
  9
$PUCSXDIR
 10
1
 20
0
 30
0
  9
$PUCSYDIR
 10
0
 20
1
 30
0
  9
$PUCSORTHOREF
  2

  9
$PUCSORTHOVIEW
 70
    0
  9
$PUCSORGTOP
 10
0
 20
0
 30
0
  9
$PUCSORGBOTTOM
 10
0
 20
0
 30
0
  9
$PUCSORGLEFT
 10
0
 20
0
 30
0
  9
$PUCSORGRIGHT
 10
0
 20
0
 30
0
  9
$PUCSORGFRONT
 10
0
 20
0
 30
0
  9
$PUCSORGBACK
 10
0
 20
0
 30
0
  9
$USERI1
 70
    0
  9
$USERI2
 70
    0
  9
$USERI3
 70
    0
  9
$USERI4
 70
    0
  9
$USERI5
 70
    0
  9
$USERR1
 40
0
  9
$USERR2
 40
0
  9
$USERR3
 40
0
  9
$USERR4
 40
0
  9
$USERR5
 40
0
  9
$WORLDVIEW
 70
    1
  9
$SHADEDGE
 70
    3
  9
$SHADEDIF
 70
   70
  9
$TILEMODE
 70
    1
  9
$MAXACTVP
 70
   64
  9
$PINSBASE
 10
0
 20
0
 30
0
  9
$PLIMCHECK
 70
    0
  9
$PEXTMIN
 10
0
 20
0
 30
0
  9
$PEXTMAX
 10
0
 20
0
 30
0
  9
$SNAPSTYLE
 70
    0
  9
$PLIMMIN
 10
0
 20
0
  9
$PLIMMAX
 10
210
 20
297
  9
$UNITMODE
 70
    0
  9
$VISRETAIN
 70
    1
  9
$PLINEGEN
 70
    0
  9
$PSLTSCALE
 70
    1
  9
$TREEDEPTH
 70
 3020
  9
$CMLSTYLE
  2
Standard
  9
$CMLJUST
 70
    0
  9
$CMLSCALE
 40
20
  9
$PROXYGRAPHICS
 70
    1
  9
$MEASUREMENT
 70
    1
  9
$CELWEIGHT
370
   -1
  9
$ENDCAPS
280
    0
  9
$JOINSTYLE
280
    0
  9
$LWDISPLAY
290
    0
  9
$INSUNITS
 70
    4
  9
$HYPERLINKBASE
  1

  9
$STYLESHEET
  1

  9
$XEDIT
290
    1
  9
$CEPSNTYPE
380
    0
  9
$PSTYLEMODE
290
    1
  9
$EXTNAMES
290
    1
  9
$PSVPSCALE
 40
1
  9
$OLESTARTUP
290
    0
  9
$SORTENTS
280
  127
  9
$INDEXCTL
280
    0
  9
$HIDETEXT
280
    1
  9
$XCLIPFRAME
290
    0
  9
$HALOGAP
280
    0
  9
$OBSCOLOR
 70
  257
  9
$OBSLTYPE
280
    0
  9
$INTERSECTIONDISPLAY
280
    0
  9
$INTERSECTIONCOLOR
 70
  257
  9
$DIMASSOC
280
    1
  9
$PROJECTNAME
  1

  9
$CAMERADISPLAY
290
    0
  9
$LENSLENGTH
 40
50
  9
$CAMERAHEIGHT
 40
0
  9
$STEPSPERSEC
 40
2
  9
$STEPSIZE
 40
50
  9
$3DDWFPREC
 40
2
  9
$PSOLWIDTH
 40
5
  9
$PSOLHEIGHT
 40
80
  9
$LOFTANG1
 40
1.570796326794897
  9
$LOFTANG2
 40
1.570796326794897
  9
$LOFTMAG1
 40
0
  9
$LOFTMAG2
 40
0
  9
$LOFTPARAM
 70
    7
  9
$LOFTNORMALS
280
    1
  9
$LATITUDE
 40
1
  9
$LONGITUDE
 40
1
  9
$NORTHDIRECTION
 40
0
  9
$TIMEZONE
 70
-8000
  9
$LIGHTGLYPHDISPLAY
280
    1
  9
$TILEMODELIGHTSYNCH
280
    1
  9
$SOLIDHIST
280
    1
  9
$SHOWHIST
280
    1
  9
$DWFFRAME
280
    2
  9
$DGNFRAME
280
    0
  9
$REALWORLDSCALE
290
    1
  9
$INTERFERECOLOR
 62
    1
  9
$CSHADOW
280
    0
  9
$SHADOWPLANELOCATION
 40
0
  0
ENDSEC
  0
SECTION
  2
CLASSES
  0
ENDSEC
  0
SECTION
  2
TABLES
  0
TABLE
  2
VPORT
  5
8
330
0
100
AcDbSymbolTable
 70
    1
  0
VPORT
  5
31
330
2
100
AcDbSymbolTableRecord
100
AcDbViewportTableRecord
  2
*ACTIVE
 70
    0
 10
0
 20
0
 11
1
 21
1
 12
0.3200304622581727
 22
9.339425563217162
 13
0
 23
0
 14
10
 24
10
 15
10
 25
10
 16
0
 26
0
 36
1
 17
0
 27
0
 37
0
 40
6.556721665777197
 41
1.705952380952381
 42
50
 43
0
 44
0
 50
0
 51
0
 71
    0
 72
  100
 73
    1
 74
    3
 75
    0
 76
    1
 77
    0
 78
    0
281
    0
 65
    1
110
0
120
0
130
0
111
1
121
0
131
0
112
0
122
1
132
0
 79
    0
146
0
348
10020
 60
    7
 61
    5
292
1
282
    1
141
0
142
0
 63
  250
421
3358443
  0
ENDTAB
  0
TABLE
  2
LTYPE
  5
5
330
0
100
AcDbSymbolTable
 70
    4
  0
LTYPE
  5
14
330
5
100
AcDbSymbolTableRecord
100
AcDbLinetypeTableRecord
  2
ByBlock
 70
    0
  3

 72
   65
 73
    0
 40
0
  0
LTYPE
  5
15
330
5
100
AcDbSymbolTableRecord
100
AcDbLinetypeTableRecord
  2
ByLayer
 70
    0
  3

 72
   65
 73
    0
 40
0
  0
LTYPE
  5
16
330
5
100
AcDbSymbolTableRecord
100
AcDbLinetypeTableRecord
  2
Continuous
 70
    0
  3
Solid line
 72
   65
 73
    0
 40
0
  0
LTYPE
  5
32
330
5
100
AcDbSymbolTableRecord
100
AcDbLinetypeTableRecord
  2
DOT
 70
    0
  3
Dot . . . . . . . . . . . . . . . . . . . . . .
 72
   65
 73
    2
 40
6.35
 49
0
 74
    0
 49
-6.35
 74
    0
  0
LTYPE
  5
33
330
5
100
AcDbSymbolTableRecord
100
AcDbLinetypeTableRecord
  2
DOTTINY
 70
    0
  3
Dot (.15x) .....................................
 72
   65
 73
    2
 40
0.9525
 49
0
 74
    0
 49
-0.9525
 74
    0
  0
LTYPE
  5
34
330
5
100
AcDbSymbolTableRecord
100
AcDbLinetypeTableRecord
  2
DOT2
 70
    0
  3
Dot (.5x) .....................................
 72
   65
 73
    2
 40
3.175
 49
0
 74
    0
 49
-3.175
 74
    0
  0
LTYPE
  5
35
330
5
100
AcDbSymbolTableRecord
100
AcDbLinetypeTableRecord
  2
DOTX2
 70
    0
  3
Dot (2x) .  .  .  .  .  .  .  .  .  .  .  .  .
 72
   65
 73
    2
 40
12.7
 49
0
 74
    0
 49
-12.7
 74
    0
  0
LTYPE
  5
36
330
5
100
AcDbSymbolTableRecord
100
AcDbLinetypeTableRecord
  2
DASHED
 70
    0
  3
Dashed _ _ _ _ _ _ _ _ _ _ _ _ _ _ _ _ _
 72
   65
 73
    2
 40
19.05
 49
12.7
 74
    0
 49
-6.35
 74
    0
  0
LTYPE
  5
37
330
5
100
AcDbSymbolTableRecord
100
AcDbLinetypeTableRecord
  2
DASHEDTINY
 70
    0
  3
Dashed (.15x) _ _ _ _ _ _ _ _ _ _ _ _ _ _ _ _ _
 72
   65
 73
    2
 40
2.8575
 49
1.905
 74
    0
 49
-0.9525
 74
    0
  0
LTYPE
  5
38
330
5
100
AcDbSymbolTableRecord
100
AcDbLinetypeTableRecord
  2
DASHED2
 70
    0
  3
Dashed (.5x) _ _ _ _ _ _ _ _ _ _ _ _ _ _ _ _ _
 72
   65
 73
    2
 40
9.524999999999999
 49
6.35
 74
    0
 49
-3.175
 74
    0
  0
LTYPE
  5
39
330
5
100
AcDbSymbolTableRecord
100
AcDbLinetypeTableRecord
  2
DASHEDX2
 70
    0
  3
Dashed (2x) ____  ____  ____  ____  ____  ___
 72
   65
 73
    2
 40
38.09999999999999
 49
25.4
 74
    0
 49
-12.7
 74
    0
  0
LTYPE
  5
3A
330
5
100
AcDbSymbolTableRecord
100
AcDbLinetypeTableRecord
  2
DASHDOT
 70
    0
  3
Dash dot __ . __ . __ . __ . __ . __ . __ . __
 72
   65
 73
    4
 40
25.4
 49
12.7
 74
    0
 49
-6.35
 74
    0
 49
0
 74
    0
 49
-6.35
 74
    0
  0
LTYPE
  5
3B
330
5
100
AcDbSymbolTableRecord
100
AcDbLinetypeTableRecord
  2
DASHDOTTINY
 70
    0
  3
Dash dot (.15x) _._._._._._._._._._._._._._._.
 72
   65
 73
    4
 40
3.81
 49
1.905
 74
    0
 49
-0.9525
 74
    0
 49
0
 74
    0
 49
-0.9525
 74
    0
  0
LTYPE
  5
3C
330
5
100
AcDbSymbolTableRecord
100
AcDbLinetypeTableRecord
  2
DASHDOT2
 70
    0
  3
Dash dot (.5x) _._._._._._._._._._._._._._._.
 72
   65
 73
    4
 40
12.7
 49
6.35
 74
    0
 49
-3.175
 74
    0
 49
0
 74
    0
 49
-3.175
 74
    0
  0
LTYPE
  5
3D
330
5
100
AcDbSymbolTableRecord
100
AcDbLinetypeTableRecord
  2
DASHDOTX2
 70
    0
  3
Dash dot (2x) ____  .  ____  .  ____  .  ___
 72
   65
 73
    4
 40
50.8
 49
25.4
 74
    0
 49
-12.7
 74
    0
 49
0
 74
    0
 49
-12.7
 74
    0
  0
LTYPE
  5
3E
330
5
100
AcDbSymbolTableRecord
100
AcDbLinetypeTableRecord
  2
DIVIDE
 70
    0
  3
Divide ____ . . ____ . . ____ . . ____ . . ____
 72
   65
 73
    6
 40
31.75
 49
12.7
 74
    0
 49
-6.35
 74
    0
 49
0
 74
    0
 49
-6.35
 74
    0
 49
0
 74
    0
 49
-6.35
 74
    0
  0
LTYPE
  5
3F
330
5
100
AcDbSymbolTableRecord
100
AcDbLinetypeTableRecord
  2
DIVIDETINY
 70
    0
  3
Divide (.15x) __..__..__..__..__..__..__..__.._
 72
   65
 73
    6
 40
4.7625
 49
1.905
 74
    0
 49
-0.9525
 74
    0
 49
0
 74
    0
 49
-0.9525
 74
    0
 49
0
 74
    0
 49
-0.9525
 74
    0
  0
LTYPE
  5
40
330
5
100
AcDbSymbolTableRecord
100
AcDbLinetypeTableRecord
  2
DIVIDE2
 70
    0
  3
Divide (.5x) __..__..__..__..__..__..__..__.._
 72
   65
 73
    6
 40
15.875
 49
6.35
 74
    0
 49
-3.175
 74
    0
 49
0
 74
    0
 49
-3.175
 74
    0
 49
0
 74
    0
 49
-3.175
 74
    0
  0
LTYPE
  5
41
330
5
100
AcDbSymbolTableRecord
100
AcDbLinetypeTableRecord
  2
DIVIDEX2
 70
    0
  3
Divide (2x) ________  .  .  ________  .  .  _
 72
   65
 73
    6
 40
63.5
 49
25.4
 74
    0
 49
-12.7
 74
    0
 49
0
 74
    0
 49
-12.7
 74
    0
 49
0
 74
    0
 49
-12.7
 74
    0
  0
LTYPE
  5
42
330
5
100
AcDbSymbolTableRecord
100
AcDbLinetypeTableRecord
  2
BORDER
 70
    0
  3
Border __ __ . __ __ . __ __ . __ __ . __ __ .
 72
   65
 73
    6
 40
44.45
 49
12.7
 74
    0
 49
-6.35
 74
    0
 49
12.7
 74
    0
 49
-6.35
 74
    0
 49
0
 74
    0
 49
-6.35
 74
    0
  0
LTYPE
  5
43
330
5
100
AcDbSymbolTableRecord
100
AcDbLinetypeTableRecord
  2
BORDERTINY
 70
    0
  3
Border (.15x) __.__.__.__.__.__.__.__.__.__.__.
 72
   65
 73
    6
 40
6.6675
 49
1.905
 74
    0
 49
-0.9525
 74
    0
 49
1.905
 74
    0
 49
-0.9525
 74
    0
 49
0
 74
    0
 49
-0.9525
 74
    0
  0
LTYPE
  5
44
330
5
100
AcDbSymbolTableRecord
100
AcDbLinetypeTableRecord
  2
BORDER2
 70
    0
  3
Border (.5x) __.__.__.__.__.__.__.__.__.__.__.
 72
   65
 73
    6
 40
22.225
 49
6.35
 74
    0
 49
-3.175
 74
    0
 49
6.35
 74
    0
 49
-3.175
 74
    0
 49
0
 74
    0
 49
-3.175
 74
    0
  0
LTYPE
  5
45
330
5
100
AcDbSymbolTableRecord
100
AcDbLinetypeTableRecord
  2
BORDERX2
 70
    0
  3
Border (2x) ____  ____  .  ____  ____  .  ___
 72
   65
 73
    6
 40
88.89999999999999
 49
25.4
 74
    0
 49
-12.7
 74
    0
 49
25.4
 74
    0
 49
-12.7
 74
    0
 49
0
 74
    0
 49
-12.7
 74
    0
  0
LTYPE
  5
46
330
5
100
AcDbSymbolTableRecord
100
AcDbLinetypeTableRecord
  2
CENTER
 70
    0
  3
Center ____ _ ____ _ ____ _ ____ _ ____ _ ____
 72
   65
 73
    4
 40
50.8
 49
31.75
 74
    0
 49
-6.35
 74
    0
 49
6.35
 74
    0
 49
-6.35
 74
    0
  0
LTYPE
  5
47
330
5
100
AcDbSymbolTableRecord
100
AcDbLinetypeTableRecord
  2
CENTERTINY
 70
    0
  3
Center (.15x) ___ _ ___ _ ___ _ ___ _ ___ _ ___
 72
   65
 73
    4
 40
7.62
 49
4.7625
 74
    0
 49
-0.9525
 74
    0
 49
0.9525
 74
    0
 49
-0.9525
 74
    0
  0
LTYPE
  5
48
330
5
100
AcDbSymbolTableRecord
100
AcDbLinetypeTableRecord
  2
CENTER2
 70
    0
  3
Center (.5x) ___ _ ___ _ ___ _ ___ _ ___ _ ___
 72
   65
 73
    4
 40
28.575
 49
19.05
 74
    0
 49
-3.175
 74
    0
 49
3.175
 74
    0
 49
-3.175
 74
    0
  0
LTYPE
  5
49
330
5
100
AcDbSymbolTableRecord
100
AcDbLinetypeTableRecord
  2
CENTERX2
 70
    0
  3
Center (2x) ________  __  ________  __  _____
 72
   65
 73
    4
 40
101.6
 49
63.5
 74
    0
 49
-12.7
 74
    0
 49
12.7
 74
    0
 49
-12.7
 74
    0
  0
ENDTAB
  0
TABLE
  2
LAYER
  5
2
330
0
100
AcDbSymbolTable
 70
    1
  0
LAYER
  5
10
330
2
100
AcDbSymbolTableRecord
100
AcDbLayerTableRecord
  2
0
 70
    0
 62
    7
  6
CONTINUOUS
370
    0
390
F
  0
LAYER
  5
4A
330
2
100
AcDbSymbolTableRecord
100
AcDbLayerTableRecord
  2
3
 70
    0
 62
    7
  6
CONTINUOUS
370
   -3
390
F
  0
ENDTAB
  0
TABLE
  2
STYLE
  5
3
330
0
100
AcDbSymbolTable
 70
    3
  0
STYLE
  5
4B
330
2
100
AcDbSymbolTableRecord
100
AcDbTextStyleTableRecord
  2
Standard
 70
    0
 40
0
 41
1
 50
0
 71
    0
 42
1
  3
txt
  4

  0
ENDTAB
  0
TABLE
  2
VIEW
  5
6
330
0
100
AcDbSymbolTable
 70
    0
  0
ENDTAB
  0
TABLE
  2
UCS
  5
7
330
0
100
AcDbSymbolTable
 70
    0
  0
ENDTAB
  0
TABLE
  2
APPID
  5
9
330
0
100
AcDbSymbolTable
 70
    1
  0
APPID
  5
12
330
9
100
AcDbSymbolTableRecord
100
AcDbRegAppTableRecord
  2
ACAD
 70
    0
  0
APPID
  5
4C
330
9
100
AcDbSymbolTableRecord
100
AcDbRegAppTableRecord
  2
LibreCad
 70
    0
  0
ENDTAB
  0
TABLE
  2
DIMSTYLE
  5
A
330
0
100
AcDbSymbolTable
 70
    1
100
AcDbDimStyleTable
 71
    1
  0
DIMSTYLE
105
4D
330
A
100
AcDbSymbolTableRecord
100
AcDbDimStyleTableRecord
  2
Standard
 70
    0
 40
1
 41
2.5
 42
0.625
 43
0.38
 44
1.25
 45
0
 46
0
 47
0
 48
0
 49
1
140
2.5
141
0.09
142
2.5
143
25.4
144
1
145
0
146
1
147
0.625
148
0
 71
    0
 72
    0
 73
    0
 74
    1
 75
    0
 76
    0
 77
    0
 78
    1
 79
    0
170
    0
171
    2
172
    0
173
    0
174
    0
175
    0
176
    0
177
    0
178
    0
179
    0
271
    2
272
    4
273
    2
274
    2
275
    0
276
    0
277
    2
278
    0
279
    0
280
    0
281
    0
282
    0
283
    1
284
    0
285
    0
286
    0
288
    0
289
    3
340
standard
341

371
   -2
372
   -2
  0
ENDTAB
  0
TABLE
  2
BLOCK_RECORD
  5
1
330
0
100
AcDbSymbolTable
 70
    2
  0
BLOCK_RECORD
  5
1F
330
1
100
AcDbSymbolTableRecord
100
AcDbBlockTableRecord
  2
*Model_Space
 70
    0
280
    1
281
    0
  0
BLOCK_RECORD
  5
1E
330
1
100
AcDbSymbolTableRecord
100
AcDbBlockTableRecord
  2
*Paper_Space
 70
    0
280
    1
281
    0
  0
ENDTAB
  0
ENDSEC
  0
SECTION
  2
BLOCKS
  0
BLOCK
  5
20
330
1F
100
AcDbEntity
  8
0
100
AcDbBlockBegin
  2
*Model_Space
 70
    0
 10
0
 20
0
 30
0
  3
*Model_Space
  1

  0
ENDBLK
  5
21
330
1F
100
AcDbEntity
  8
0
100
AcDbBlockEnd
  0
BLOCK
  5
1C
330
1B
100
AcDbEntity
  8
0
100
AcDbBlockBegin
  2
*Paper_Space
 70
    0
 10
0
 20
0
 30
0
  3
*Paper_Space
  1

  0
ENDBLK
  5
1D
330
1F
100
AcDbEntity
  8
0
100
AcDbBlockEnd
  0
ENDSEC
  0
SECTION
  2
ENTITIES
  0
LWPOLYLINE
  5
4E
100
AcDbEntity
  8
3
  6
ByLayer
 62
  256
370
   -1
100
AcDbPolyline
 90
  435
 70
    0
 43
0
 10
-0.00019455
 20
16.1064415
 10
-0.00181198
 20
16.1064415
 10
-0.01781082
 20
16.10683823
 10
-0.03378677
 20
16.10769272
 10
-0.04973221
 20
16.10898972
 10
-0.0656395
 20
16.11071396
 10
-0.08149338
 20
16.11289597
 10
-0.09727859
 20
16.11550522
 10
-0.11297989
 20
16.11854172
 10
-0.13068008
 20
16.12252426
 10
-0.4093132
 20
16.19305038
 10
-0.68441391
 20
16.26005173
 10
-0.9595298799999999
 20
16.32352829
 10
-1.23815536
 20
16.38349533
 10
-1.51327896
 20
16.43992233
 10
-1.79189682
 20
16.49633408
 10
-2.07053757
 20
16.5492363
 10
-2.34917068
 20
16.59861374
 10
-2.60663223
 20
16.63740158
 10
-2.86764145
 20
16.66913986
 10
-3.12864304
 20
16.6903038
 10
-3.21064377
 20
16.69446945
 10
-3.29269791
 20
16.6975975
 10
-3.37478256
 20
16.69968796
 10
-3.45688248
 20
16.70077133
 10
-3.53899765
 20
16.70081711
 10
-3.62110519
 20
16.69984055
 10
-3.70318985
 20
16.69784164
 10
-3.78524399
 20
16.69480515
 10
-3.86301804
 20
16.68938828
 10
-3.94072342
 20
16.68299484
 10
-4.01834488
 20
16.67564011
 10
-4.09586716
 20
16.66730881
 10
-4.17327499
 20
16.6580162
 10
-4.25056076
 20
16.64774704
 10
-4.32771683
 20
16.63651657
 10
-4.40472031
 20
16.6243248
 10
-4.4815712
 20
16.61117172
 10
-4.55824661
 20
16.59705734
 10
-4.63474655
 20
16.58198166
 10
-4.67689896
 20
16.57325363
 10
-4.72739792
 20
16.56109238
 10
-4.77775192
 20
16.54830551
 10
-4.82793045
 20
16.53487778
 10
-4.87794876
 20
16.52082443
 10
-4.92777634
 20
16.50616074
 10
-4.97742844
 20
16.49087143
 10
-5.02687454
 20
16.47495651
 10
-5.07612228
 20
16.45843124
 10
-5.12516403
 20
16.44128036
 10
-5.1739769
 20
16.42353439
 10
-5.22257614
 20
16.40516281
 10
-5.27093124
 20
16.38619614
 10
-5.31905746
 20
16.36661911
 10
-5.36692429
 20
16.34644699
 10
-5.41453934
 20
16.32567978
 10
-5.45300674
 20
16.30837631
 10
-5.51485825
 20
16.2795372
 10
-5.57634354
 20
16.24991989
 10
-5.63744736
 20
16.21953964
 10
-5.69817734
 20
16.18839645
 10
-5.74361801
 20
16.1649437
 10
-5.78876877
 20
16.14094162
 10
-5.83360672
 20
16.11635971
 10
-5.8781395
 20
16.09124374
 10
-5.92235184
 20
16.06554794
 10
-5.96624374
 20
16.03931808
 10
-6.00979996
 20
16.01253891
 10
-6.05302048
 20
15.98521042
 10
-6.09589767
 20
15.95734787
 10
-6.13841629
 20
15.92895126
 10
-6.18058395
 20
15.9000206
 10
-6.22238541
 20
15.87057114
 10
-6.26381302
 20
15.84060287
 10
-6.30486679
 20
15.81011581
 10
-6.34553146
 20
15.77910995
 10
-6.40969467
 20
15.72800827
 10
-6.47320938
 20
15.67611313
 10
-6.53607559
 20
15.62342453
 10
-6.59827805
 20
15.56995773
 10
-6.65980911
 20
15.51571274
 10
-6.72065353
 20
15.46072006
 10
-6.78081131
 20
15.40494919
 10
-6.84025955
 20
15.34843063
 10
-6.89899826
 20
15.29119492
 10
-6.95701981
 20
15.23321152
 10
-7.00130081
 20
15.18796921
 10
-7.08948135
 20
15.08921432
 10
-7.17412186
 20
14.9904747
 10
-7.27640152
 20
14.85645676
 10
-7.37516403
 20
14.71892929
 10
-7.47039413
 20
14.57787704
 10
-7.50014877
 20
14.53351974
 10
-7.52934647
 20
14.48879623
 10
-7.55797958
 20
14.44370651
 10
-7.58605576
 20
14.39826584
 10
-7.61355209
 20
14.35247421
 10
-7.64047623
 20
14.30634689
 10
-7.66682053
 20
14.25988388
 10
-7.69258499
 20
14.21310043
 10
-7.71776199
 20
14.16599655
 10
-7.7423439
 20
14.11857224
 10
-7.76633835
 20
14.070858
 10
-7.78973007
 20
14.02283859
 10
-7.81251907
 20
13.97452927
 10
-7.83470535
 20
13.92594528
 10
-7.85627365
 20
13.87708664
 10
-7.88656998
 20
13.80553818
 10
-7.9112587
 20
13.74206161
 10
-7.93595505
 20
13.68210983
 10
-7.95711136
 20
13.62214279
 10
-7.97829056
 20
13.55866623
 10
-8.01002121
 20
13.45287704
 10
-8.04177475
 20
13.34356308
 10
-8.0735054
 20
13.23069382
 10
-8.10526657
 20
13.11785507
 10
-8.1299324
 20
13.02968979
 10
-8.147571559999999
 20
12.93798447
 10
-8.157596590000001
 20
12.88305283
 10
-8.16693497
 20
12.82798386
 10
-8.17557907
 20
12.77280807
 10
-8.18353653
 20
12.71752548
 10
-8.19079971
 20
12.6621666
 10
-8.197368620000001
 20
12.6067009
 10
-8.203243260000001
 20
12.55115891
 10
-8.208431239999999
 20
12.49555588
 10
-8.21291733
 20
12.43989182
 10
-8.21670151
 20
12.38416672
 10
-8.21979904
 20
12.3284111
 10
-8.22219467
 20
12.27260971
 10
-8.223896030000001
 20
12.2167778
 10
-8.224895480000001
 20
12.16094589
 10
-8.225193020000001
 20
12.10509872
 10
-8.224803919999999
 20
12.04925156
 10
-8.22370529
 20
11.99341965
 10
-8.221912379999999
 20
11.937603
 10
-8.2194252
 20
11.88180161
 10
-8.216236110000001
 20
11.82604599
 10
-8.212352750000001
 20
11.77033615
 10
-8.207775120000001
 20
11.71467209
 10
-8.202503200000001
 20
11.65906906
 10
-8.19652939
 20
11.60354233
 10
-8.189868929999999
 20
11.54809189
 10
-8.182514189999999
 20
11.492733
 10
-8.175785060000001
 20
11.44622421
 10
-8.147571559999999
 20
11.2416954
 10
-8.11230087
 20
11.03713608
 10
-8.055873869999999
 20
10.76206589
 10
-7.98180771
 20
10.49052048
 10
-7.89010239
 20
10.22248459
 10
-7.78429031
 20
9.96154404
 10
-7.68201828
 20
9.739345549999999
 10
-7.57619858
 20
9.52070236
 10
-7.45980453
 20
9.3055687
 10
-7.33636856
 20
9.09749985
 10
-7.17412186
 20
8.857707980000001
 10
-7.00481796
 20
8.621425629999999
 10
-6.83553696
 20
8.388652799999999
 10
-6.65565872
 20
8.159435269999999
 10
-6.47225571
 20
7.93725204
 10
-6.28180313
 20
7.72213364
 10
-6.08780289
 20
7.51052475
 10
-5.88676071
 20
7.30599594
 10
-5.68925095
 20
7.09438705
 10
-5.48820877
 20
6.88985825
 10
-5.28363419
 20
6.68883896
 10
-5.07556534
 20
6.49486923
 10
-4.86392593
 20
6.30442429
 10
-4.64525223
 20
6.1139946
 10
-4.42658615
 20
5.92708969
 10
-4.20437241
 20
5.74016953
 10
-3.97865677
 20
5.5567894
 10
-3.75292587
 20
5.38045883
 10
-3.52366257
 20
5.20412827
 10
-3.29088974
 20
5.03132248
 10
-3.05457687
 20
4.86204147
 10
-2.81827164
 20
4.69630051
 10
-2.57842636
 20
4.53406906
 10
-2.33859634
 20
4.37185287
 10
-2.09522629
 20
4.21668625
 10
-1.85186386
 20
4.06502914
 10
-1.60497665
 20
3.91691208
 10
-1.35454941
 20
3.76881027
 10
-1.10414505
 20
3.62772751
 10
-0.85020065
 20
3.48667526
 10
-0.59625626
 20
3.35265732
 10
-0.57240677
 20
3.34087753
 10
-0.54841232
 20
3.32938766
 10
-0.52427292
 20
3.31818771
 10
-0.49999619
 20
3.3073082
 10
-0.47558212
 20
3.2967186
 10
-0.45103836
 20
3.28643417
 10
-0.42637253
 20
3.27647018
 10
-0.40158463
 20
3.26681137
 10
-0.36698532
 20
3.25391769
 10
-0.35142899
 20
3.24943161
 10
-0.33581161
 20
3.24512863
 10
-0.32014084
 20
3.24102402
 10
-0.30442429
 20
3.23711777
 10
-0.28866196
 20
3.23340988
 10
-0.27284622
 20
3.22990036
 10
-0.25699234
 20
3.2265892
 10
-0.24110031
 20
3.22347641
 10
-0.22517014
 20
3.22056198
 10
-0.20920181
 20
3.21784592
 10
-0.19320297
 20
3.21532822
 10
-0.17717361
 20
3.21300888
 10
-0.16112137
 20
3.21088791
 10
-0.1450386
 20
3.20898056
 10
-0.12893295
 20
3.20725632
 10
-0.11281204
 20
3.2057457
 10
-0.09666824
 20
3.20443344
 10
-0.08050918999999999
 20
3.20333481
 10
-0.06433487
 20
3.20241928
 10
-0.04816055
 20
3.20171738
 10
-0.03197098
 20
3.20121384
 10
-0.01577377
 20
3.20090866
 10
-0.00019455
 20
3.20081711
 10
0.01538467
 20
3.20090866
 10
0.03157425
 20
3.20121384
 10
0.04776382
 20
3.20171738
 10
0.06394577
 20
3.20241928
 10
0.08011246
 20
3.20333481
 10
0.09627151
 20
3.20443344
 10
0.11241531
 20
3.2057457
 10
0.12854385
 20
3.20725632
 10
0.14464951
 20
3.20898056
 10
0.16072464
 20
3.21088791
 10
0.17678452
 20
3.21300888
 10
0.19281387
 20
3.21532822
 10
0.20881271
 20
3.21784592
 10
0.22478104
 20
3.22056198
 10
0.24071121
 20
3.22347641
 10
0.25660324
 20
3.2265892
 10
0.27245712
 20
3.22990036
 10
0.28826523
 20
3.23340988
 10
0.30403519
 20
3.23711777
 10
0.31975174
 20
3.24102402
 10
0.33541489
 20
3.24512863
 10
0.35103226
 20
3.24943161
 10
0.36659622
 20
3.25391769
 10
0.4011879
 20
3.26681137
 10
0.42598343
 20
3.27647018
 10
0.45064926
 20
3.28643417
 10
0.47519302
 20
3.2967186
 10
0.49959946
 20
3.3073082
 10
0.52387619
 20
3.31818771
 10
0.54801559
 20
3.32938766
 10
0.57201004
 20
3.34087753
 10
0.59586716
 20
3.35265732
 10
0.84981155
 20
3.48667526
 10
1.10374832
 20
3.62772751
 10
1.35416031
 20
3.76881027
 10
1.60457993
 20
3.91691208
 10
1.85146713
 20
4.06502914
 10
2.09483719
 20
4.21668625
 10
2.33820724
 20
4.37185287
 10
2.57803726
 20
4.53406906
 10
2.81788254
 20
4.69630051
 10
3.05418777
 20
4.86204147
 10
3.29049301
 20
5.03132248
 10
3.52326584
 20
5.20412827
 10
3.75253677
 20
5.38045883
 10
3.97826767
 20
5.5567894
 10
4.20398331
 20
5.74016953
 10
4.42618942
 20
5.92708969
 10
4.64486313
 20
6.1139946
 10
4.86353683
 20
6.30442429
 10
5.07516861
 20
6.49486923
 10
5.28324509
 20
6.68883896
 10
5.48781967
 20
6.88985825
 10
5.68885422
 20
7.09438705
 10
5.88637161
 20
7.30599594
 10
6.08740616
 20
7.51052475
 10
6.2814064
 20
7.72213364
 10
6.47186661
 20
7.93725204
 10
6.65526199
 20
8.159435269999999
 10
6.83514786
 20
8.388652799999999
 10
7.00442886
 20
8.621425629999999
 10
7.17373276
 20
8.857707980000001
 10
7.33597183
 20
9.09749985
 10
7.45941544
 20
9.3055687
 10
7.57580948
 20
9.52070236
 10
7.68162155
 20
9.739345549999999
 10
7.78390121
 20
9.96154404
 10
7.88971329
 20
10.22248459
 10
7.98141861
 20
10.49052048
 10
8.05548477
 20
10.76206589
 10
8.111911770000001
 20
11.03713608
 10
8.14718246
 20
11.2416954
 10
8.17538834
 20
11.44622421
 10
8.182117460000001
 20
11.492733
 10
8.189472200000001
 20
11.54809189
 10
8.196140290000001
 20
11.60354233
 10
8.202106479999999
 20
11.65906906
 10
8.20738602
 20
11.71467209
 10
8.21196365
 20
11.77033615
 10
8.21584702
 20
11.82604599
 10
8.21902847
 20
11.88180161
 10
8.22152328
 20
11.937603
 10
8.22331619
 20
11.99341965
 10
8.2244072
 20
12.04925156
 10
8.224803919999999
 20
12.10509872
 10
8.22449875
 20
12.16094589
 10
8.2234993
 20
12.2167778
 10
8.221805570000001
 20
12.27260971
 10
8.21940994
 20
12.3284111
 10
8.21631241
 20
12.38416672
 10
8.2125206
 20
12.43989182
 10
8.20803452
 20
12.49555588
 10
8.202854159999999
 20
12.55115891
 10
8.196979519999999
 20
12.6067009
 10
8.19040298
 20
12.6621666
 10
8.183139799999999
 20
12.71752548
 10
8.17518997
 20
12.77280807
 10
8.16653824
 20
12.82798386
 10
8.157207489999999
 20
12.88305283
 10
8.14718246
 20
12.93798447
 10
8.1295433
 20
13.02968979
 10
8.104869839999999
 20
13.11785507
 10
8.073116300000001
 20
13.23069382
 10
8.04138565
 20
13.34356308
 10
8.009624479999999
 20
13.45287704
 10
7.97789383
 20
13.55866623
 10
7.95672226
 20
13.62214279
 10
7.93556595
 20
13.68210983
 10
7.9108696
 20
13.74206161
 10
7.88617325
 20
13.80553818
 10
7.85588455
 20
13.87708664
 10
7.83430862
 20
13.92594528
 10
7.81212234
 20
13.97452927
 10
7.78933334
 20
14.02283859
 10
7.76594162
 20
14.070858
 10
7.7419548
 20
14.11857224
 10
7.71736526
 20
14.16599655
 10
7.69218826
 20
14.21310043
 10
7.66643143
 20
14.25988388
 10
7.6400795
 20
14.30634689
 10
7.61316299
 20
14.35247421
 10
7.58565903
 20
14.39826584
 10
7.55759048
 20
14.44370651
 10
7.52895737
 20
14.48879623
 10
7.49975967
 20
14.53351974
 10
7.47000504
 20
14.57787704
 10
7.3747673
 20
14.71892929
 10
7.27601242
 20
14.85645676
 10
7.17373276
 20
14.9904747
 10
7.08908463
 20
15.08921432
 10
7.00091171
 20
15.18796921
 10
6.95663071
 20
15.23321152
 10
6.89860916
 20
15.29119492
 10
6.83987045
 20
15.34843063
 10
6.78041458
 20
15.40494919
 10
6.72026443
 20
15.46072006
 10
6.65942001
 20
15.51571274
 10
6.59788895
 20
15.56995773
 10
6.53568649
 20
15.62342453
 10
6.47282028
 20
15.67611313
 10
6.40929794
 20
15.72800827
 10
6.34513474
 20
15.77910995
 10
6.30447006
 20
15.81011581
 10
6.26341629
 20
15.84060287
 10
6.22198868
 20
15.87057114
 10
6.18019485
 20
15.9000206
 10
6.13802719
 20
15.92895126
 10
6.09550095
 20
15.95734787
 10
6.05263138
 20
15.98521042
 10
6.00941086
 20
16.01253891
 10
5.96585464
 20
16.03931808
 10
5.92196274
 20
16.06554794
 10
5.8777504
 20
16.09124374
 10
5.83321762
 20
16.11635971
 10
5.78837204
 20
16.14094162
 10
5.74322891
 20
16.1649437
 10
5.69778824
 20
16.18839645
 10
5.63705826
 20
16.21953964
 10
5.57594681
 20
16.24991989
 10
5.51446152
 20
16.2795372
 10
5.45261002
 20
16.30837631
 10
5.41415024
 20
16.32567978
 10
5.36653519
 20
16.34644699
 10
5.31866074
 20
16.36661911
 10
5.27054214
 20
16.38619614
 10
5.22217941
 20
16.40516281
 10
5.1735878
 20
16.42353439
 10
5.1247673
 20
16.44128036
 10
5.07573318
 20
16.45843124
 10
5.02648544
 20
16.47495651
 10
4.97703171
 20
16.49087143
 10
4.92738724
 20
16.50616074
 10
4.87755203
 20
16.52082443
 10
4.82754135
 20
16.53487778
 10
4.77735519
 20
16.54830551
 10
4.72700882
 20
16.56109238
 10
4.67650223
 20
16.57325363
 10
4.63435745
 20
16.58198166
 10
4.55785751
 20
16.59705734
 10
4.48117447
 20
16.61117172
 10
4.40433121
 20
16.6243248
 10
4.3273201
 20
16.63651657
 10
4.25017166
 20
16.64774704
 10
4.17288589
 20
16.6580162
 10
4.09547043
 20
16.66730881
 10
4.01794815
 20
16.67564011
 10
3.94033432
 20
16.68299484
 10
3.86262894
 20
16.68938828
 10
3.78485489
 20
16.69480515
 10
3.70279312
 20
16.69784164
 10
3.62070847
 20
16.69984055
 10
3.53860855
 20
16.70081711
 10
3.45649338
 20
16.70077133
 10
3.37439346
 20
16.69968796
 10
3.29230881
 20
16.6975975
 10
3.21025467
 20
16.69446945
 10
3.12824631
 20
16.6903038
 10
2.86724472
 20
16.66913986
 10
2.60624313
 20
16.63740158
 10
2.34878159
 20
16.59861374
 10
2.07014084
 20
16.5492363
 10
1.79150009
 20
16.49633408
 10
1.51288223
 20
16.43992233
 10
1.23775864
 20
16.38349533
 10
0.95914078
 20
16.32352829
 10
0.68402481
 20
16.26005173
 10
0.4089241
 20
16.19305038
 10
0.13028336
 20
16.12252426
 10
0.11259079
 20
16.11854172
 10
0.09688186999999999
 20
16.11550522
 10
0.08109665000000001
 20
16.11289597
 10
0.0652504
 20
16.11071396
 10
0.04934311
 20
16.10898972
 10
0.03339767
 20
16.10769272
 10
0.01741409
 20
16.10683823
 10
0.00142288
 20
16.1064415
 10
-0.00019455
 20
16.1064415
  0
ENDSEC
  0
SECTION
  2
OBJECTS
  0
DICTIONARY
  5
C
330
0
100
AcDbDictionary
281
    1
  3
ACAD_GROUP
350
D
  0
DICTIONARY
  5
D
330
C
100
AcDbDictionary
281
    1
  0
ENDSEC
  0
EOF
