  0
SECTION
  2
ENTITIES
  0
POLYLINE
  8
3
 66
1
 10
0.0
 20
0.0
 30
0.0
  0
VERTEX
  8
3
 10
-0.00019455
 20
16.10644150
 30
0.0
  0
VERTEX
  8
3
 10
-0.00181198
 20
16.10644150
 30
0.00000000
  0
VERTEX
  8
3
 10
-0.01781082
 20
16.10683823
 30
0.00000000
  0
VERTEX
  8
3
 10
-0.03378677
 20
16.10769272
 30
0.00000000
  0
VERTEX
  8
3
 10
-0.04973221
 20
16.10898972
 30
0.00000000
  0
VERTEX
  8
3
 10
-0.06563950
 20
16.11071396
 30
0.00000000
  0
VERTEX
  8
3
 10
-0.08149338
 20
16.11289597
 30
0.00000000
  0
VERTEX
  8
3
 10
-0.09727859
 20
16.11550522
 30
0.00000000
  0
VERTEX
  8
3
 10
-0.11297989
 20
16.11854172
 30
0.00000000
  0
VERTEX
  8
3
 10
-0.13068008
 20
16.12252426
 30
0.00000000
  0
VERTEX
  8
3
 10
-0.40931320
 20
16.19305038
 30
0.00000000
  0
VERTEX
  8
3
 10
-0.68441391
 20
16.26005173
 30
0.00000000
  0
VERTEX
  8
3
 10
-0.95952988
 20
16.32352829
 30
0.00000000
  0
VERTEX
  8
3
 10
-1.23815536
 20
16.38349533
 30
0.00000000
  0
VERTEX
  8
3
 10
-1.51327896
 20
16.43992233
 30
0.00000000
  0
VERTEX
  8
3
 10
-1.79189682
 20
16.49633408
 30
0.00000000
  0
VERTEX
  8
3
 10
-2.07053757
 20
16.54923630
 30
0.00000000
  0
VERTEX
  8
3
 10
-2.34917068
 20
16.59861374
 30
0.00000000
  0
VERTEX
  8
3
 10
-2.60663223
 20
16.63740158
 30
0.00000000
  0
VERTEX
  8
3
 10
-2.86764145
 20
16.66913986
 30
0.00000000
  0
VERTEX
  8
3
 10
-3.12864304
 20
16.69030380
 30
0.00000000
  0
VERTEX
  8
3
 10
-3.21064377
 20
16.69446945
 30
0.00000000
  0
VERTEX
  8
3
 10
-3.29269791
 20
16.69759750
 30
0.00000000
  0
VERTEX
  8
3
 10
-3.37478256
 20
16.69968796
 30
0.00000000
  0
VERTEX
  8
3
 10
-3.45688248
 20
16.70077133
 30
0.00000000
  0
VERTEX
  8
3
 10
-3.53899765
 20
16.70081711
 30
0.00000000
  0
VERTEX
  8
3
 10
-3.62110519
 20
16.69984055
 30
0.00000000
  0
VERTEX
  8
3
 10
-3.70318985
 20
16.69784164
 30
0.00000000
  0
VERTEX
  8
3
 10
-3.78524399
 20
16.69480515
 30
0.00000000
  0
VERTEX
  8
3
 10
-3.86301804
 20
16.68938828
 30
0.00000000
  0
VERTEX
  8
3
 10
-3.94072342
 20
16.68299484
 30
0.00000000
  0
VERTEX
  8
3
 10
-4.01834488
 20
16.67564011
 30
0.00000000
  0
VERTEX
  8
3
 10
-4.09586716
 20
16.66730881
 30
0.00000000
  0
VERTEX
  8
3
 10
-4.17327499
 20
16.65801620
 30
0.00000000
  0
VERTEX
  8
3
 10
-4.25056076
 20
16.64774704
 30
0.00000000
  0
VERTEX
  8
3
 10
-4.32771683
 20
16.63651657
 30
0.00000000
  0
VERTEX
  8
3
 10
-4.40472031
 20
16.62432480
 30
0.00000000
  0
VERTEX
  8
3
 10
-4.48157120
 20
16.61117172
 30
0.00000000
  0
VERTEX
  8
3
 10
-4.55824661
 20
16.59705734
 30
0.00000000
  0
VERTEX
  8
3
 10
-4.63474655
 20
16.58198166
 30
0.00000000
  0
VERTEX
  8
3
 10
-4.67689896
 20
16.57325363
 30
0.00000000
  0
VERTEX
  8
3
 10
-4.72739792
 20
16.56109238
 30
0.00000000
  0
VERTEX
  8
3
 10
-4.77775192
 20
16.54830551
 30
0.00000000
  0
VERTEX
  8
3
 10
-4.82793045
 20
16.53487778
 30
0.00000000
  0
VERTEX
  8
3
 10
-4.87794876
 20
16.52082443
 30
0.00000000
  0
VERTEX
  8
3
 10
-4.92777634
 20
16.50616074
 30
0.00000000
  0
VERTEX
  8
3
 10
-4.97742844
 20
16.49087143
 30
0.00000000
  0
VERTEX
  8
3
 10
-5.02687454
 20
16.47495651
 30
0.00000000
  0
VERTEX
  8
3
 10
-5.07612228
 20
16.45843124
 30
0.00000000
  0
VERTEX
  8
3
 10
-5.12516403
 20
16.44128036
 30
0.00000000
  0
VERTEX
  8
3
 10
-5.17397690
 20
16.42353439
 30
0.00000000
  0
VERTEX
  8
3
 10
-5.22257614
 20
16.40516281
 30
0.00000000
  0
VERTEX
  8
3
 10
-5.27093124
 20
16.38619614
 30
0.00000000
  0
VERTEX
  8
3
 10
-5.31905746
 20
16.36661911
 30
0.00000000
  0
VERTEX
  8
3
 10
-5.36692429
 20
16.34644699
 30
0.00000000
  0
VERTEX
  8
3
 10
-5.41453934
 20
16.32567978
 30
0.00000000
  0
VERTEX
  8
3
 10
-5.45300674
 20
16.30837631
 30
0.00000000
  0
VERTEX
  8
3
 10
-5.51485825
 20
16.27953720
 30
0.00000000
  0
VERTEX
  8
3
 10
-5.57634354
 20
16.24991989
 30
0.00000000
  0
VERTEX
  8
3
 10
-5.63744736
 20
16.21953964
 30
0.00000000
  0
VERTEX
  8
3
 10
-5.69817734
 20
16.18839645
 30
0.00000000
  0
VERTEX
  8
3
 10
-5.74361801
 20
16.16494370
 30
0.00000000
  0
VERTEX
  8
3
 10
-5.78876877
 20
16.14094162
 30
0.00000000
  0
VERTEX
  8
3
 10
-5.83360672
 20
16.11635971
 30
0.00000000
  0
VERTEX
  8
3
 10
-5.87813950
 20
16.09124374
 30
0.00000000
  0
VERTEX
  8
3
 10
-5.92235184
 20
16.06554794
 30
0.00000000
  0
VERTEX
  8
3
 10
-5.96624374
 20
16.03931808
 30
0.00000000
  0
VERTEX
  8
3
 10
-6.00979996
 20
16.01253891
 30
0.00000000
  0
VERTEX
  8
3
 10
-6.05302048
 20
15.98521042
 30
0.00000000
  0
VERTEX
  8
3
 10
-6.09589767
 20
15.95734787
 30
0.00000000
  0
VERTEX
  8
3
 10
-6.13841629
 20
15.92895126
 30
0.00000000
  0
VERTEX
  8
3
 10
-6.18058395
 20
15.90002060
 30
0.00000000
  0
VERTEX
  8
3
 10
-6.22238541
 20
15.87057114
 30
0.00000000
  0
VERTEX
  8
3
 10
-6.26381302
 20
15.84060287
 30
0.00000000
  0
VERTEX
  8
3
 10
-6.30486679
 20
15.81011581
 30
0.00000000
  0
VERTEX
  8
3
 10
-6.34553146
 20
15.77910995
 30
0.00000000
  0
VERTEX
  8
3
 10
-6.40969467
 20
15.72800827
 30
0.00000000
  0
VERTEX
  8
3
 10
-6.47320938
 20
15.67611313
 30
0.00000000
  0
VERTEX
  8
3
 10
-6.53607559
 20
15.62342453
 30
0.00000000
  0
VERTEX
  8
3
 10
-6.59827805
 20
15.56995773
 30
0.00000000
  0
VERTEX
  8
3
 10
-6.65980911
 20
15.51571274
 30
0.00000000
  0
VERTEX
  8
3
 10
-6.72065353
 20
15.46072006
 30
0.00000000
  0
VERTEX
  8
3
 10
-6.78081131
 20
15.40494919
 30
0.00000000
  0
VERTEX
  8
3
 10
-6.84025955
 20
15.34843063
 30
0.00000000
  0
VERTEX
  8
3
 10
-6.89899826
 20
15.29119492
 30
0.00000000
  0
VERTEX
  8
3
 10
-6.95701981
 20
15.23321152
 30
0.00000000
  0
VERTEX
  8
3
 10
-7.00130081
 20
15.18796921
 30
0.00000000
  0
VERTEX
  8
3
 10
-7.08948135
 20
15.08921432
 30
0.00000000
  0
VERTEX
  8
3
 10
-7.17412186
 20
14.99047470
 30
0.00000000
  0
VERTEX
  8
3
 10
-7.27640152
 20
14.85645676
 30
0.00000000
  0
VERTEX
  8
3
 10
-7.37516403
 20
14.71892929
 30
0.00000000
  0
VERTEX
  8
3
 10
-7.47039413
 20
14.57787704
 30
0.00000000
  0
VERTEX
  8
3
 10
-7.50014877
 20
14.53351974
 30
0.00000000
  0
VERTEX
  8
3
 10
-7.52934647
 20
14.48879623
 30
0.00000000
  0
VERTEX
  8
3
 10
-7.55797958
 20
14.44370651
 30
0.00000000
  0
VERTEX
  8
3
 10
-7.58605576
 20
14.39826584
 30
0.00000000
  0
VERTEX
  8
3
 10
-7.61355209
 20
14.35247421
 30
0.00000000
  0
VERTEX
  8
3
 10
-7.64047623
 20
14.30634689
 30
0.00000000
  0
VERTEX
  8
3
 10
-7.66682053
 20
14.25988388
 30
0.00000000
  0
VERTEX
  8
3
 10
-7.69258499
 20
14.21310043
 30
0.00000000
  0
VERTEX
  8
3
 10
-7.71776199
 20
14.16599655
 30
0.00000000
  0
VERTEX
  8
3
 10
-7.74234390
 20
14.11857224
 30
0.00000000
  0
VERTEX
  8
3
 10
-7.76633835
 20
14.07085800
 30
0.00000000
  0
VERTEX
  8
3
 10
-7.78973007
 20
14.02283859
 30
0.00000000
  0
VERTEX
  8
3
 10
-7.81251907
 20
13.97452927
 30
0.00000000
  0
VERTEX
  8
3
 10
-7.83470535
 20
13.92594528
 30
0.00000000
  0
VERTEX
  8
3
 10
-7.85627365
 20
13.87708664
 30
0.00000000
  0
VERTEX
  8
3
 10
-7.88656998
 20
13.80553818
 30
0.00000000
  0
VERTEX
  8
3
 10
-7.91125870
 20
13.74206161
 30
0.00000000
  0
VERTEX
  8
3
 10
-7.93595505
 20
13.68210983
 30
0.00000000
  0
VERTEX
  8
3
 10
-7.95711136
 20
13.62214279
 30
0.00000000
  0
VERTEX
  8
3
 10
-7.97829056
 20
13.55866623
 30
0.00000000
  0
VERTEX
  8
3
 10
-8.01002121
 20
13.45287704
 30
0.00000000
  0
VERTEX
  8
3
 10
-8.04177475
 20
13.34356308
 30
0.00000000
  0
VERTEX
  8
3
 10
-8.07350540
 20
13.23069382
 30
0.00000000
  0
VERTEX
  8
3
 10
-8.10526657
 20
13.11785507
 30
0.00000000
  0
VERTEX
  8
3
 10
-8.12993240
 20
13.02968979
 30
0.00000000
  0
VERTEX
  8
3
 10
-8.14757156
 20
12.93798447
 30
0.00000000
  0
VERTEX
  8
3
 10
-8.15759659
 20
12.88305283
 30
0.00000000
  0
VERTEX
  8
3
 10
-8.16693497
 20
12.82798386
 30
0.00000000
  0
VERTEX
  8
3
 10
-8.17557907
 20
12.77280807
 30
0.00000000
  0
VERTEX
  8
3
 10
-8.18353653
 20
12.71752548
 30
0.00000000
  0
VERTEX
  8
3
 10
-8.19079971
 20
12.66216660
 30
0.00000000
  0
VERTEX
  8
3
 10
-8.19736862
 20
12.60670090
 30
0.00000000
  0
VERTEX
  8
3
 10
-8.20324326
 20
12.55115891
 30
0.00000000
  0
VERTEX
  8
3
 10
-8.20843124
 20
12.49555588
 30
0.00000000
  0
VERTEX
  8
3
 10
-8.21291733
 20
12.43989182
 30
0.00000000
  0
VERTEX
  8
3
 10
-8.21670151
 20
12.38416672
 30
0.00000000
  0
VERTEX
  8
3
 10
-8.21979904
 20
12.32841110
 30
0.00000000
  0
VERTEX
  8
3
 10
-8.22219467
 20
12.27260971
 30
0.00000000
  0
VERTEX
  8
3
 10
-8.22389603
 20
12.21677780
 30
0.00000000
  0
VERTEX
  8
3
 10
-8.22489548
 20
12.16094589
 30
0.00000000
  0
VERTEX
  8
3
 10
-8.22519302
 20
12.10509872
 30
0.00000000
  0
VERTEX
  8
3
 10
-8.22480392
 20
12.04925156
 30
0.00000000
  0
VERTEX
  8
3
 10
-8.22370529
 20
11.99341965
 30
0.00000000
  0
VERTEX
  8
3
 10
-8.22191238
 20
11.93760300
 30
0.00000000
  0
VERTEX
  8
3
 10
-8.21942520
 20
11.88180161
 30
0.00000000
  0
VERTEX
  8
3
 10
-8.21623611
 20
11.82604599
 30
0.00000000
  0
VERTEX
  8
3
 10
-8.21235275
 20
11.77033615
 30
0.00000000
  0
VERTEX
  8
3
 10
-8.20777512
 20
11.71467209
 30
0.00000000
  0
VERTEX
  8
3
 10
-8.20250320
 20
11.65906906
 30
0.00000000
  0
VERTEX
  8
3
 10
-8.19652939
 20
11.60354233
 30
0.00000000
  0
VERTEX
  8
3
 10
-8.18986893
 20
11.54809189
 30
0.00000000
  0
VERTEX
  8
3
 10
-8.18251419
 20
11.49273300
 30
0.00000000
  0
VERTEX
  8
3
 10
-8.17578506
 20
11.44622421
 30
0.00000000
  0
VERTEX
  8
3
 10
-8.14757156
 20
11.24169540
 30
0.00000000
  0
VERTEX
  8
3
 10
-8.11230087
 20
11.03713608
 30
0.00000000
  0
VERTEX
  8
3
 10
-8.05587387
 20
10.76206589
 30
0.00000000
  0
VERTEX
  8
3
 10
-7.98180771
 20
10.49052048
 30
0.00000000
  0
VERTEX
  8
3
 10
-7.89010239
 20
10.22248459
 30
0.00000000
  0
VERTEX
  8
3
 10
-7.78429031
 20
9.96154404
 30
0.00000000
  0
VERTEX
  8
3
 10
-7.68201828
 20
9.73934555
 30
0.00000000
  0
VERTEX
  8
3
 10
-7.57619858
 20
9.52070236
 30
0.00000000
  0
VERTEX
  8
3
 10
-7.45980453
 20
9.30556870
 30
0.00000000
  0
VERTEX
  8
3
 10
-7.33636856
 20
9.09749985
 30
0.00000000
  0
VERTEX
  8
3
 10
-7.17412186
 20
8.85770798
 30
0.00000000
  0
VERTEX
  8
3
 10
-7.00481796
 20
8.62142563
 30
0.00000000
  0
VERTEX
  8
3
 10
-6.83553696
 20
8.38865280
 30
0.00000000
  0
VERTEX
  8
3
 10
-6.65565872
 20
8.15943527
 30
0.00000000
  0
VERTEX
  8
3
 10
-6.47225571
 20
7.93725204
 30
0.00000000
  0
VERTEX
  8
3
 10
-6.28180313
 20
7.72213364
 30
0.00000000
  0
VERTEX
  8
3
 10
-6.08780289
 20
7.51052475
 30
0.00000000
  0
VERTEX
  8
3
 10
-5.88676071
 20
7.30599594
 30
0.00000000
  0
VERTEX
  8
3
 10
-5.68925095
 20
7.09438705
 30
0.00000000
  0
VERTEX
  8
3
 10
-5.48820877
 20
6.88985825
 30
0.00000000
  0
VERTEX
  8
3
 10
-5.28363419
 20
6.68883896
 30
0.00000000
  0
VERTEX
  8
3
 10
-5.07556534
 20
6.49486923
 30
0.00000000
  0
VERTEX
  8
3
 10
-4.86392593
 20
6.30442429
 30
0.00000000
  0
VERTEX
  8
3
 10
-4.64525223
 20
6.11399460
 30
0.00000000
  0
VERTEX
  8
3
 10
-4.42658615
 20
5.92708969
 30
0.00000000
  0
VERTEX
  8
3
 10
-4.20437241
 20
5.74016953
 30
0.00000000
  0
VERTEX
  8
3
 10
-3.97865677
 20
5.55678940
 30
0.00000000
  0
VERTEX
  8
3
 10
-3.75292587
 20
5.38045883
 30
0.00000000
  0
VERTEX
  8
3
 10
-3.52366257
 20
5.20412827
 30
0.00000000
  0
VERTEX
  8
3
 10
-3.29088974
 20
5.03132248
 30
0.00000000
  0
VERTEX
  8
3
 10
-3.05457687
 20
4.86204147
 30
0.00000000
  0
VERTEX
  8
3
 10
-2.81827164
 20
4.69630051
 30
0.00000000
  0
VERTEX
  8
3
 10
-2.57842636
 20
4.53406906
 30
0.00000000
  0
VERTEX
  8
3
 10
-2.33859634
 20
4.37185287
 30
0.00000000
  0
VERTEX
  8
3
 10
-2.09522629
 20
4.21668625
 30
0.00000000
  0
VERTEX
  8
3
 10
-1.85186386
 20
4.06502914
 30
0.00000000
  0
VERTEX
  8
3
 10
-1.60497665
 20
3.91691208
 30
0.00000000
  0
VERTEX
  8
3
 10
-1.35454941
 20
3.76881027
 30
0.00000000
  0
VERTEX
  8
3
 10
-1.10414505
 20
3.62772751
 30
0.00000000
  0
VERTEX
  8
3
 10
-0.85020065
 20
3.48667526
 30
0.00000000
  0
VERTEX
  8
3
 10
-0.59625626
 20
3.35265732
 30
0.00000000
  0
VERTEX
  8
3
 10
-0.57240677
 20
3.34087753
 30
0.00000000
  0
VERTEX
  8
3
 10
-0.54841232
 20
3.32938766
 30
0.00000000
  0
VERTEX
  8
3
 10
-0.52427292
 20
3.31818771
 30
0.00000000
  0
VERTEX
  8
3
 10
-0.49999619
 20
3.30730820
 30
0.00000000
  0
VERTEX
  8
3
 10
-0.47558212
 20
3.29671860
 30
0.00000000
  0
VERTEX
  8
3
 10
-0.45103836
 20
3.28643417
 30
0.00000000
  0
VERTEX
  8
3
 10
-0.42637253
 20
3.27647018
 30
0.00000000
  0
VERTEX
  8
3
 10
-0.40158463
 20
3.26681137
 30
0.00000000
  0
VERTEX
  8
3
 10
-0.36698532
 20
3.25391769
 30
0.00000000
  0
VERTEX
  8
3
 10
-0.35142899
 20
3.24943161
 30
0.00000000
  0
VERTEX
  8
3
 10
-0.33581161
 20
3.24512863
 30
0.00000000
  0
VERTEX
  8
3
 10
-0.32014084
 20
3.24102402
 30
0.00000000
  0
VERTEX
  8
3
 10
-0.30442429
 20
3.23711777
 30
0.00000000
  0
VERTEX
  8
3
 10
-0.28866196
 20
3.23340988
 30
0.00000000
  0
VERTEX
  8
3
 10
-0.27284622
 20
3.22990036
 30
0.00000000
  0
VERTEX
  8
3
 10
-0.25699234
 20
3.22658920
 30
0.00000000
  0
VERTEX
  8
3
 10
-0.24110031
 20
3.22347641
 30
0.00000000
  0
VERTEX
  8
3
 10
-0.22517014
 20
3.22056198
 30
0.00000000
  0
VERTEX
  8
3
 10
-0.20920181
 20
3.21784592
 30
0.00000000
  0
VERTEX
  8
3
 10
-0.19320297
 20
3.21532822
 30
0.00000000
  0
VERTEX
  8
3
 10
-0.17717361
 20
3.21300888
 30
0.00000000
  0
VERTEX
  8
3
 10
-0.16112137
 20
3.21088791
 30
0.00000000
  0
VERTEX
  8
3
 10
-0.14503860
 20
3.20898056
 30
0.00000000
  0
VERTEX
  8
3
 10
-0.12893295
 20
3.20725632
 30
0.00000000
  0
VERTEX
  8
3
 10
-0.11281204
 20
3.20574570
 30
0.00000000
  0
VERTEX
  8
3
 10
-0.09666824
 20
3.20443344
 30
0.00000000
  0
VERTEX
  8
3
 10
-0.08050919
 20
3.20333481
 30
0.00000000
  0
VERTEX
  8
3
 10
-0.06433487
 20
3.20241928
 30
0.00000000
  0
VERTEX
  8
3
 10
-0.04816055
 20
3.20171738
 30
0.00000000
  0
VERTEX
  8
3
 10
-0.03197098
 20
3.20121384
 30
0.00000000
  0
VERTEX
  8
3
 10
-0.01577377
 20
3.20090866
 30
0.00000000
  0
VERTEX
  8
3
 10
-0.00019455
 20
3.20081711
 30
0.00000000
  0
VERTEX
  8
3
 10
0.01538467
 20
3.20090866
 30
0.00000000
  0
VERTEX
  8
3
 10
0.03157425
 20
3.20121384
 30
0.00000000
  0
VERTEX
  8
3
 10
0.04776382
 20
3.20171738
 30
0.00000000
  0
VERTEX
  8
3
 10
0.06394577
 20
3.20241928
 30
0.00000000
  0
VERTEX
  8
3
 10
0.08011246
 20
3.20333481
 30
0.00000000
  0
VERTEX
  8
3
 10
0.09627151
 20
3.20443344
 30
0.00000000
  0
VERTEX
  8
3
 10
0.11241531
 20
3.20574570
 30
0.00000000
  0
VERTEX
  8
3
 10
0.12854385
 20
3.20725632
 30
0.00000000
  0
VERTEX
  8
3
 10
0.14464951
 20
3.20898056
 30
0.00000000
  0
VERTEX
  8
3
 10
0.16072464
 20
3.21088791
 30
0.00000000
  0
VERTEX
  8
3
 10
0.17678452
 20
3.21300888
 30
0.00000000
  0
VERTEX
  8
3
 10
0.19281387
 20
3.21532822
 30
0.00000000
  0
VERTEX
  8
3
 10
0.20881271
 20
3.21784592
 30
0.00000000
  0
VERTEX
  8
3
 10
0.22478104
 20
3.22056198
 30
0.00000000
  0
VERTEX
  8
3
 10
0.24071121
 20
3.22347641
 30
0.00000000
  0
VERTEX
  8
3
 10
0.25660324
 20
3.22658920
 30
0.00000000
  0
VERTEX
  8
3
 10
0.27245712
 20
3.22990036
 30
0.00000000
  0
VERTEX
  8
3
 10
0.28826523
 20
3.23340988
 30
0.00000000
  0
VERTEX
  8
3
 10
0.30403519
 20
3.23711777
 30
0.00000000
  0
VERTEX
  8
3
 10
0.31975174
 20
3.24102402
 30
0.00000000
  0
VERTEX
  8
3
 10
0.33541489
 20
3.24512863
 30
0.00000000
  0
VERTEX
  8
3
 10
0.35103226
 20
3.24943161
 30
0.00000000
  0
VERTEX
  8
3
 10
0.36659622
 20
3.25391769
 30
0.00000000
  0
VERTEX
  8
3
 10
0.40118790
 20
3.26681137
 30
0.00000000
  0
VERTEX
  8
3
 10
0.42598343
 20
3.27647018
 30
0.00000000
  0
VERTEX
  8
3
 10
0.45064926
 20
3.28643417
 30
0.00000000
  0
VERTEX
  8
3
 10
0.47519302
 20
3.29671860
 30
0.00000000
  0
VERTEX
  8
3
 10
0.49959946
 20
3.30730820
 30
0.00000000
  0
VERTEX
  8
3
 10
0.52387619
 20
3.31818771
 30
0.00000000
  0
VERTEX
  8
3
 10
0.54801559
 20
3.32938766
 30
0.00000000
  0
VERTEX
  8
3
 10
0.57201004
 20
3.34087753
 30
0.00000000
  0
VERTEX
  8
3
 10
0.59586716
 20
3.35265732
 30
0.00000000
  0
VERTEX
  8
3
 10
0.84981155
 20
3.48667526
 30
0.00000000
  0
VERTEX
  8
3
 10
1.10374832
 20
3.62772751
 30
0.00000000
  0
VERTEX
  8
3
 10
1.35416031
 20
3.76881027
 30
0.00000000
  0
VERTEX
  8
3
 10
1.60457993
 20
3.91691208
 30
0.00000000
  0
VERTEX
  8
3
 10
1.85146713
 20
4.06502914
 30
0.00000000
  0
VERTEX
  8
3
 10
2.09483719
 20
4.21668625
 30
0.00000000
  0
VERTEX
  8
3
 10
2.33820724
 20
4.37185287
 30
0.00000000
  0
VERTEX
  8
3
 10
2.57803726
 20
4.53406906
 30
0.00000000
  0
VERTEX
  8
3
 10
2.81788254
 20
4.69630051
 30
0.00000000
  0
VERTEX
  8
3
 10
3.05418777
 20
4.86204147
 30
0.00000000
  0
VERTEX
  8
3
 10
3.29049301
 20
5.03132248
 30
0.00000000
  0
VERTEX
  8
3
 10
3.52326584
 20
5.20412827
 30
0.00000000
  0
VERTEX
  8
3
 10
3.75253677
 20
5.38045883
 30
0.00000000
  0
VERTEX
  8
3
 10
3.97826767
 20
5.55678940
 30
0.00000000
  0
VERTEX
  8
3
 10
4.20398331
 20
5.74016953
 30
0.00000000
  0
VERTEX
  8
3
 10
4.42618942
 20
5.92708969
 30
0.00000000
  0
VERTEX
  8
3
 10
4.64486313
 20
6.11399460
 30
0.00000000
  0
VERTEX
  8
3
 10
4.86353683
 20
6.30442429
 30
0.00000000
  0
VERTEX
  8
3
 10
5.07516861
 20
6.49486923
 30
0.00000000
  0
VERTEX
  8
3
 10
5.28324509
 20
6.68883896
 30
0.00000000
  0
VERTEX
  8
3
 10
5.48781967
 20
6.88985825
 30
0.00000000
  0
VERTEX
  8
3
 10
5.68885422
 20
7.09438705
 30
0.00000000
  0
VERTEX
  8
3
 10
5.88637161
 20
7.30599594
 30
0.00000000
  0
VERTEX
  8
3
 10
6.08740616
 20
7.51052475
 30
0.00000000
  0
VERTEX
  8
3
 10
6.28140640
 20
7.72213364
 30
0.00000000
  0
VERTEX
  8
3
 10
6.47186661
 20
7.93725204
 30
0.00000000
  0
VERTEX
  8
3
 10
6.65526199
 20
8.15943527
 30
0.00000000
  0
VERTEX
  8
3
 10
6.83514786
 20
8.38865280
 30
0.00000000
  0
VERTEX
  8
3
 10
7.00442886
 20
8.62142563
 30
0.00000000
  0
VERTEX
  8
3
 10
7.17373276
 20
8.85770798
 30
0.00000000
  0
VERTEX
  8
3
 10
7.33597183
 20
9.09749985
 30
0.00000000
  0
VERTEX
  8
3
 10
7.45941544
 20
9.30556870
 30
0.00000000
  0
VERTEX
  8
3
 10
7.57580948
 20
9.52070236
 30
0.00000000
  0
VERTEX
  8
3
 10
7.68162155
 20
9.73934555
 30
0.00000000
  0
VERTEX
  8
3
 10
7.78390121
 20
9.96154404
 30
0.00000000
  0
VERTEX
  8
3
 10
7.88971329
 20
10.22248459
 30
0.00000000
  0
VERTEX
  8
3
 10
7.98141861
 20
10.49052048
 30
0.00000000
  0
VERTEX
  8
3
 10
8.05548477
 20
10.76206589
 30
0.00000000
  0
VERTEX
  8
3
 10
8.11191177
 20
11.03713608
 30
0.00000000
  0
VERTEX
  8
3
 10
8.14718246
 20
11.24169540
 30
0.00000000
  0
VERTEX
  8
3
 10
8.17538834
 20
11.44622421
 30
0.00000000
  0
VERTEX
  8
3
 10
8.18211746
 20
11.49273300
 30
0.00000000
  0
VERTEX
  8
3
 10
8.18947220
 20
11.54809189
 30
0.00000000
  0
VERTEX
  8
3
 10
8.19614029
 20
11.60354233
 30
0.00000000
  0
VERTEX
  8
3
 10
8.20210648
 20
11.65906906
 30
0.00000000
  0
VERTEX
  8
3
 10
8.20738602
 20
11.71467209
 30
0.00000000
  0
VERTEX
  8
3
 10
8.21196365
 20
11.77033615
 30
0.00000000
  0
VERTEX
  8
3
 10
8.21584702
 20
11.82604599
 30
0.00000000
  0
VERTEX
  8
3
 10
8.21902847
 20
11.88180161
 30
0.00000000
  0
VERTEX
  8
3
 10
8.22152328
 20
11.93760300
 30
0.00000000
  0
VERTEX
  8
3
 10
8.22331619
 20
11.99341965
 30
0.00000000
  0
VERTEX
  8
3
 10
8.22440720
 20
12.04925156
 30
0.00000000
  0
VERTEX
  8
3
 10
8.22480392
 20
12.10509872
 30
0.00000000
  0
VERTEX
  8
3
 10
8.22449875
 20
12.16094589
 30
0.00000000
  0
VERTEX
  8
3
 10
8.22349930
 20
12.21677780
 30
0.00000000
  0
VERTEX
  8
3
 10
8.22180557
 20
12.27260971
 30
0.00000000
  0
VERTEX
  8
3
 10
8.21940994
 20
12.32841110
 30
0.00000000
  0
VERTEX
  8
3
 10
8.21631241
 20
12.38416672
 30
0.00000000
  0
VERTEX
  8
3
 10
8.21252060
 20
12.43989182
 30
0.00000000
  0
VERTEX
  8
3
 10
8.20803452
 20
12.49555588
 30
0.00000000
  0
VERTEX
  8
3
 10
8.20285416
 20
12.55115891
 30
0.00000000
  0
VERTEX
  8
3
 10
8.19697952
 20
12.60670090
 30
0.00000000
  0
VERTEX
  8
3
 10
8.19040298
 20
12.66216660
 30
0.00000000
  0
VERTEX
  8
3
 10
8.18313980
 20
12.71752548
 30
0.00000000
  0
VERTEX
  8
3
 10
8.17518997
 20
12.77280807
 30
0.00000000
  0
VERTEX
  8
3
 10
8.16653824
 20
12.82798386
 30
0.00000000
  0
VERTEX
  8
3
 10
8.15720749
 20
12.88305283
 30
0.00000000
  0
VERTEX
  8
3
 10
8.14718246
 20
12.93798447
 30
0.00000000
  0
VERTEX
  8
3
 10
8.12954330
 20
13.02968979
 30
0.00000000
  0
VERTEX
  8
3
 10
8.10486984
 20
13.11785507
 30
0.00000000
  0
VERTEX
  8
3
 10
8.07311630
 20
13.23069382
 30
0.00000000
  0
VERTEX
  8
3
 10
8.04138565
 20
13.34356308
 30
0.00000000
  0
VERTEX
  8
3
 10
8.00962448
 20
13.45287704
 30
0.00000000
  0
VERTEX
  8
3
 10
7.97789383
 20
13.55866623
 30
0.00000000
  0
VERTEX
  8
3
 10
7.95672226
 20
13.62214279
 30
0.00000000
  0
VERTEX
  8
3
 10
7.93556595
 20
13.68210983
 30
0.00000000
  0
VERTEX
  8
3
 10
7.91086960
 20
13.74206161
 30
0.00000000
  0
VERTEX
  8
3
 10
7.88617325
 20
13.80553818
 30
0.00000000
  0
VERTEX
  8
3
 10
7.85588455
 20
13.87708664
 30
0.00000000
  0
VERTEX
  8
3
 10
7.83430862
 20
13.92594528
 30
0.00000000
  0
VERTEX
  8
3
 10
7.81212234
 20
13.97452927
 30
0.00000000
  0
VERTEX
  8
3
 10
7.78933334
 20
14.02283859
 30
0.00000000
  0
VERTEX
  8
3
 10
7.76594162
 20
14.07085800
 30
0.00000000
  0
VERTEX
  8
3
 10
7.74195480
 20
14.11857224
 30
0.00000000
  0
VERTEX
  8
3
 10
7.71736526
 20
14.16599655
 30
0.00000000
  0
VERTEX
  8
3
 10
7.69218826
 20
14.21310043
 30
0.00000000
  0
VERTEX
  8
3
 10
7.66643143
 20
14.25988388
 30
0.00000000
  0
VERTEX
  8
3
 10
7.64007950
 20
14.30634689
 30
0.00000000
  0
VERTEX
  8
3
 10
7.61316299
 20
14.35247421
 30
0.00000000
  0
VERTEX
  8
3
 10
7.58565903
 20
14.39826584
 30
0.00000000
  0
VERTEX
  8
3
 10
7.55759048
 20
14.44370651
 30
0.00000000
  0
VERTEX
  8
3
 10
7.52895737
 20
14.48879623
 30
0.00000000
  0
VERTEX
  8
3
 10
7.49975967
 20
14.53351974
 30
0.00000000
  0
VERTEX
  8
3
 10
7.47000504
 20
14.57787704
 30
0.00000000
  0
VERTEX
  8
3
 10
7.37476730
 20
14.71892929
 30
0.00000000
  0
VERTEX
  8
3
 10
7.27601242
 20
14.85645676
 30
0.00000000
  0
VERTEX
  8
3
 10
7.17373276
 20
14.99047470
 30
0.00000000
  0
VERTEX
  8
3
 10
7.08908463
 20
15.08921432
 30
0.00000000
  0
VERTEX
  8
3
 10
7.00091171
 20
15.18796921
 30
0.00000000
  0
VERTEX
  8
3
 10
6.95663071
 20
15.23321152
 30
0.00000000
  0
VERTEX
  8
3
 10
6.89860916
 20
15.29119492
 30
0.00000000
  0
VERTEX
  8
3
 10
6.83987045
 20
15.34843063
 30
0.00000000
  0
VERTEX
  8
3
 10
6.78041458
 20
15.40494919
 30
0.00000000
  0
VERTEX
  8
3
 10
6.72026443
 20
15.46072006
 30
0.00000000
  0
VERTEX
  8
3
 10
6.65942001
 20
15.51571274
 30
0.00000000
  0
VERTEX
  8
3
 10
6.59788895
 20
15.56995773
 30
0.00000000
  0
VERTEX
  8
3
 10
6.53568649
 20
15.62342453
 30
0.00000000
  0
VERTEX
  8
3
 10
6.47282028
 20
15.67611313
 30
0.00000000
  0
VERTEX
  8
3
 10
6.40929794
 20
15.72800827
 30
0.00000000
  0
VERTEX
  8
3
 10
6.34513474
 20
15.77910995
 30
0.00000000
  0
VERTEX
  8
3
 10
6.30447006
 20
15.81011581
 30
0.00000000
  0
VERTEX
  8
3
 10
6.26341629
 20
15.84060287
 30
0.00000000
  0
VERTEX
  8
3
 10
6.22198868
 20
15.87057114
 30
0.00000000
  0
VERTEX
  8
3
 10
6.18019485
 20
15.90002060
 30
0.00000000
  0
VERTEX
  8
3
 10
6.13802719
 20
15.92895126
 30
0.00000000
  0
VERTEX
  8
3
 10
6.09550095
 20
15.95734787
 30
0.00000000
  0
VERTEX
  8
3
 10
6.05263138
 20
15.98521042
 30
0.00000000
  0
VERTEX
  8
3
 10
6.00941086
 20
16.01253891
 30
0.00000000
  0
VERTEX
  8
3
 10
5.96585464
 20
16.03931808
 30
0.00000000
  0
VERTEX
  8
3
 10
5.92196274
 20
16.06554794
 30
0.00000000
  0
VERTEX
  8
3
 10
5.87775040
 20
16.09124374
 30
0.00000000
  0
VERTEX
  8
3
 10
5.83321762
 20
16.11635971
 30
0.00000000
  0
VERTEX
  8
3
 10
5.78837204
 20
16.14094162
 30
0.00000000
  0
VERTEX
  8
3
 10
5.74322891
 20
16.16494370
 30
0.00000000
  0
VERTEX
  8
3
 10
5.69778824
 20
16.18839645
 30
0.00000000
  0
VERTEX
  8
3
 10
5.63705826
 20
16.21953964
 30
0.00000000
  0
VERTEX
  8
3
 10
5.57594681
 20
16.24991989
 30
0.00000000
  0
VERTEX
  8
3
 10
5.51446152
 20
16.27953720
 30
0.00000000
  0
VERTEX
  8
3
 10
5.45261002
 20
16.30837631
 30
0.00000000
  0
VERTEX
  8
3
 10
5.41415024
 20
16.32567978
 30
0.00000000
  0
VERTEX
  8
3
 10
5.36653519
 20
16.34644699
 30
0.00000000
  0
VERTEX
  8
3
 10
5.31866074
 20
16.36661911
 30
0.00000000
  0
VERTEX
  8
3
 10
5.27054214
 20
16.38619614
 30
0.00000000
  0
VERTEX
  8
3
 10
5.22217941
 20
16.40516281
 30
0.00000000
  0
VERTEX
  8
3
 10
5.17358780
 20
16.42353439
 30
0.00000000
  0
VERTEX
  8
3
 10
5.12476730
 20
16.44128036
 30
0.00000000
  0
VERTEX
  8
3
 10
5.07573318
 20
16.45843124
 30
0.00000000
  0
VERTEX
  8
3
 10
5.02648544
 20
16.47495651
 30
0.00000000
  0
VERTEX
  8
3
 10
4.97703171
 20
16.49087143
 30
0.00000000
  0
VERTEX
  8
3
 10
4.92738724
 20
16.50616074
 30
0.00000000
  0
VERTEX
  8
3
 10
4.87755203
 20
16.52082443
 30
0.00000000
  0
VERTEX
  8
3
 10
4.82754135
 20
16.53487778
 30
0.00000000
  0
VERTEX
  8
3
 10
4.77735519
 20
16.54830551
 30
0.00000000
  0
VERTEX
  8
3
 10
4.72700882
 20
16.56109238
 30
0.00000000
  0
VERTEX
  8
3
 10
4.67650223
 20
16.57325363
 30
0.00000000
  0
VERTEX
  8
3
 10
4.63435745
 20
16.58198166
 30
0.00000000
  0
VERTEX
  8
3
 10
4.55785751
 20
16.59705734
 30
0.00000000
  0
VERTEX
  8
3
 10
4.48117447
 20
16.61117172
 30
0.00000000
  0
VERTEX
  8
3
 10
4.40433121
 20
16.62432480
 30
0.00000000
  0
VERTEX
  8
3
 10
4.32732010
 20
16.63651657
 30
0.00000000
  0
VERTEX
  8
3
 10
4.25017166
 20
16.64774704
 30
0.00000000
  0
VERTEX
  8
3
 10
4.17288589
 20
16.65801620
 30
0.00000000
  0
VERTEX
  8
3
 10
4.09547043
 20
16.66730881
 30
0.00000000
  0
VERTEX
  8
3
 10
4.01794815
 20
16.67564011
 30
0.00000000
  0
VERTEX
  8
3
 10
3.94033432
 20
16.68299484
 30
0.00000000
  0
VERTEX
  8
3
 10
3.86262894
 20
16.68938828
 30
0.00000000
  0
VERTEX
  8
3
 10
3.78485489
 20
16.69480515
 30
0.00000000
  0
VERTEX
  8
3
 10
3.70279312
 20
16.69784164
 30
0.00000000
  0
VERTEX
  8
3
 10
3.62070847
 20
16.69984055
 30
0.00000000
  0
VERTEX
  8
3
 10
3.53860855
 20
16.70081711
 30
0.00000000
  0
VERTEX
  8
3
 10
3.45649338
 20
16.70077133
 30
0.00000000
  0
VERTEX
  8
3
 10
3.37439346
 20
16.69968796
 30
0.00000000
  0
VERTEX
  8
3
 10
3.29230881
 20
16.69759750
 30
0.00000000
  0
VERTEX
  8
3
 10
3.21025467
 20
16.69446945
 30
0.00000000
  0
VERTEX
  8
3
 10
3.12824631
 20
16.69030380
 30
0.00000000
  0
VERTEX
  8
3
 10
2.86724472
 20
16.66913986
 30
0.00000000
  0
VERTEX
  8
3
 10
2.60624313
 20
16.63740158
 30
0.00000000
  0
VERTEX
  8
3
 10
2.34878159
 20
16.59861374
 30
0.00000000
  0
VERTEX
  8
3
 10
2.07014084
 20
16.54923630
 30
0.00000000
  0
VERTEX
  8
3
 10
1.79150009
 20
16.49633408
 30
0.00000000
  0
VERTEX
  8
3
 10
1.51288223
 20
16.43992233
 30
0.00000000
  0
VERTEX
  8
3
 10
1.23775864
 20
16.38349533
 30
0.00000000
  0
VERTEX
  8
3
 10
0.95914078
 20
16.32352829
 30
0.00000000
  0
VERTEX
  8
3
 10
0.68402481
 20
16.26005173
 30
0.00000000
  0
VERTEX
  8
3
 10
0.40892410
 20
16.19305038
 30
0.00000000
  0
VERTEX
  8
3
 10
0.13028336
 20
16.12252426
 30
0.00000000
  0
VERTEX
  8
3
 10
0.11259079
 20
16.11854172
 30
0.00000000
  0
VERTEX
  8
3
 10
0.09688187
 20
16.11550522
 30
0.00000000
  0
VERTEX
  8
3
 10
0.08109665
 20
16.11289597
 30
0.00000000
  0
VERTEX
  8
3
 10
0.06525040
 20
16.11071396
 30
0.00000000
  0
VERTEX
  8
3
 10
0.04934311
 20
16.10898972
 30
0.00000000
  0
VERTEX
  8
3
 10
0.03339767
 20
16.10769272
 30
0.00000000
  0
VERTEX
  8
3
 10
0.01741409
 20
16.10683823
 30
0.00000000
  0
VERTEX
  8
3
 10
0.00142288
 20
16.10644150
 30
0.00000000
  0
VERTEX
  8
3
 10
-0.00019455
 20
16.10644150
 30
0.00000000
  0
SEQEND
  8
3
  0
ENDSEC
  0
EOF
